# xmcd
#
# Track frame offsets:
#	150
#	9930
#	22002
#	31485
#	42242
#	54550
#	80470
#	90507
#	99405
#	108840
#	122395
#	133512
#	148660
#
# Disc length: 2115 seconds
#
# Revision: 2
# Processed by: cddbd v1.5.2PL0 Copyright (c) Steve Scherf et al.
# Submitted via: audiograbber 1.83.01
#
DISCID=9a08410d
DTITLE=Hate Society - Hell's your Place!!!
DYEAR=1998
DGENRE=R.A.C.
TTITLE0=One Day
TTITLE1=Svastica flies again
TTITLE2=Boots in your Face
TTITLE3=Grateful Man
TTITLE4=Burning Cross
TTITLE5=Don't fight each other
TTITLE6=Thanks for being there
TTITLE7=Bad Song
TTITLE8=Hell's your Place
TTITLE9=Hang 'em high
TTITLE10=Take part of it
TTITLE11=Reality
TTITLE12=Showdown
EXTD=Hatefront Records 1998
EXTT0=
EXTT1=
EXTT2=
EXTT3=
EXTT4=
EXTT5=
EXTT6=
EXTT7=
EXTT8=
EXTT9=
EXTT10=
EXTT11=
EXTT12=
PLAYORDER=
